<svg width="50" height="50" viewBox="0 0 50 50" fill="none" xmlns="http://www.w3.org/2000/svg">
<g filter="url(#filter0_d_1_694)">
<circle cx="18" cy="18" r="18" transform="matrix(-1 0 0 1 41 5)" fill="white"/>
</g>
<path d="M28.6162 22.2929C29.0067 22.6834 29.0067 23.3166 28.6162 23.7071L22.2522 30.0711C21.8617 30.4616 21.2285 30.4616 20.838 30.0711C20.4475 29.6805 20.4475 29.0474 20.838 28.6569L26.4949 23L20.838 17.3431C20.4475 16.9526 20.4475 16.3195 20.838 15.9289C21.2285 15.5384 21.8617 15.5384 22.2522 15.9289L28.6162 22.2929ZM26.2727 22L27.9091 22L27.9091 24L26.2727 24L26.2727 22Z" fill="black"/>
<defs>
<filter id="filter0_d_1_694" x="0" y="0" width="50" height="50" filterUnits="userSpaceOnUse" color-interpolation-filters="sRGB">
<feFlood flood-opacity="0" result="BackgroundImageFix"/>
<feColorMatrix in="SourceAlpha" type="matrix" values="0 0 0 0 0 0 0 0 0 0 0 0 0 0 0 0 0 0 127 0" result="hardAlpha"/>
<feOffset dx="2" dy="2"/>
<feGaussianBlur stdDeviation="3.5"/>
<feComposite in2="hardAlpha" operator="out"/>
<feColorMatrix type="matrix" values="0 0 0 0 0 0 0 0 0 0 0 0 0 0 0 0 0 0 0.15 0"/>
<feBlend mode="normal" in2="BackgroundImageFix" result="effect1_dropShadow_1_694"/>
<feBlend mode="normal" in="SourceGraphic" in2="effect1_dropShadow_1_694" result="shape"/>
</filter>
</defs>
</svg>
